<?xml version="1.0" encoding="UTF-8" standalone="no"?>
<!DOCTYPE svg PUBLIC "-//W3C//DTD SVG 1.1//EN" "http://www.w3.org/Graphics/SVG/1.1/DTD/svg11.dtd">
<svg version="1.1" xmlns="http://www.w3.org/2000/svg" xmlns:xlink="http://www.w3.org/1999/xlink" preserveAspectRatio="xMidYMid meet" viewBox="-1.0034240418344211 -1.0047318578039608 253.99999999999997 175.34" width="200" height="171.34"><defs><path d="M105.69 51.48L109.76 25.49L112.57 5.19L133.17 51.25L135.32 48.29L150.53 19.43L151.92 25.42L152.71 24.34L154.84 37.93L159.12 56.28L246.15 19.43L188.77 74.44L246.15 84.38L245.4 84.62L246.15 84.74L233.36 88.41L189.02 102.39L250 153.86L156.57 123.87L165.01 171.34L134.32 129.19L133.44 129.41L123.46 166.94L100.63 134.41L75.89 161.88L75.89 132.87L0 150.53L54.82 104.39L8.7 87.65L59.27 78.5L31.15 39.84L75.89 60.62L49.85 0L52 1.98L51.19 0L91.37 38.28L105.69 51.48Z" id="a23eqFPIMi"></path></defs><g><g><g><filter id="shadow2274973" x="-9" y="-9" width="269" height="190.34" filterUnits="userSpaceOnUse" primitiveUnits="userSpaceOnUse"><feFlood></feFlood><feComposite in2="SourceAlpha" operator="in"></feComposite><feGaussianBlur stdDeviation="1"></feGaussianBlur><feOffset dx="1" dy="1" result="afterOffset"></feOffset><feFlood flood-color="#000000" flood-opacity="0.5"></feFlood><feComposite in2="afterOffset" operator="in"></feComposite><feMorphology operator="dilate" radius="1"></feMorphology><feComposite in2="SourceAlpha" operator="out"></feComposite></filter><path d="M105.69 51.48L109.76 25.49L112.57 5.19L133.17 51.25L135.32 48.29L150.53 19.43L151.92 25.42L152.71 24.34L154.84 37.93L159.12 56.28L246.15 19.43L188.77 74.44L246.15 84.38L245.4 84.62L246.15 84.74L233.36 88.41L189.02 102.39L250 153.86L156.57 123.87L165.01 171.34L134.32 129.19L133.44 129.41L123.46 166.94L100.63 134.41L75.89 161.88L75.89 132.87L0 150.53L54.82 104.39L8.7 87.65L59.27 78.5L31.15 39.84L75.89 60.62L49.85 0L52 1.98L51.19 0L91.37 38.28L105.69 51.48Z" id="e3t2VgRnN3" fill="white" fill-opacity="1" filter="url(#shadow2274973)"></path></g><use xlink:href="#a23eqFPIMi" opacity="1" fill="#253db5" fill-opacity="1"></use><g><use xlink:href="#a23eqFPIMi" opacity="1" fill-opacity="0" stroke="#000000" stroke-width="1" stroke-opacity="1"></use></g></g></g></svg>